<?xml version="1.0" encoding="utf-8"?>
<!-- Generator: Adobe Illustrator 16.0.0, SVG Export Plug-In . SVG Version: 6.00 Build 0)  -->
<!DOCTYPE svg PUBLIC "-//W3C//DTD SVG 1.1//EN" "http://www.w3.org/Graphics/SVG/1.1/DTD/svg11.dtd">
<svg version="1.1" id="Layer_1" xmlns="http://www.w3.org/2000/svg" xmlns:xlink="http://www.w3.org/1999/xlink" x="0px" y="0px"
	 width="200px" height="151px" viewBox="0 0 200 151" enable-background="new 0 0 200 151" xml:space="preserve">
<g>
	<linearGradient id="SVGID_1_" gradientUnits="userSpaceOnUse" x1="118.5918" y1="78.1357" x2="79.8886" y2="60.1093">
		<stop  offset="0" style="stop-color:#D90E56"/>
		<stop  offset="0.2575" style="stop-color:#E23D48"/>
		<stop  offset="0.5517" style="stop-color:#EC5A2E"/>
		<stop  offset="0.6928" style="stop-color:#F26522"/>
		<stop  offset="0.9967" style="stop-color:#FBAA19"/>
	</linearGradient>
	<path fill="url(#SVGID_1_)" d="M112.162,70.382c-3.777,0.007-7.625-0.532-11.428-1.681c-1.962-0.594-3.842-1.329-5.636-2.187
		c-3.905-1.871-7.383-4.345-10.374-7.262c-5.125-5-8.79-11.314-10.592-18.217c-1.123,4.309-1.478,8.648-1.151,12.871
		c0.451,5.838,2.209,11.449,5.063,16.444c1.701,2.973,3.781,5.733,6.213,8.185c7.338,2.127,14.813,1.996,21.673,0.008
		c6.165-1.786,11.832-5.062,16.453-9.548C119.084,69.898,115.652,70.376,112.162,70.382z"/>
	<linearGradient id="SVGID_2_" gradientUnits="userSpaceOnUse" x1="77.9854" y1="49.8374" x2="62.6735" y2="79.1829">
		<stop  offset="0" style="stop-color:#DA2128"/>
		<stop  offset="0.428" style="stop-color:#AD2C3E"/>
		<stop  offset="0.8155" style="stop-color:#8D2D49"/>
		<stop  offset="1" style="stop-color:#812C4D"/>
	</linearGradient>
	<path fill="url(#SVGID_2_)" d="M78.043,70.351c-2.854-4.996-4.612-10.606-5.063-16.444c-0.327-4.223,0.029-8.562,1.151-12.871
		c0.129-0.494,0.26-0.99,0.409-1.484c1.973-6.527,5.497-12.16,10.047-16.622c-4.153,1.188-8.076,3.05-11.613,5.502
		c-4.774,3.309-8.837,7.691-11.787,12.927c-1.386,2.463-2.536,5.106-3.388,7.925c-0.165,0.543-0.31,1.088-0.451,1.632
		c1.8,6.822,5.423,13.067,10.476,18.023c4.353,4.274,9.766,7.592,16.001,9.479c0.14,0.041,0.286,0.075,0.43,0.117
		C81.824,76.084,79.744,73.324,78.043,70.351z"/>
	<linearGradient id="SVGID_3_" gradientUnits="userSpaceOnUse" x1="52.1904" y1="44.418" x2="85.6547" y2="18.7274">
		<stop  offset="0" style="stop-color:#D90E56"/>
		<stop  offset="0.2575" style="stop-color:#E23D48"/>
		<stop  offset="0.5517" style="stop-color:#EC5A2E"/>
		<stop  offset="0.6928" style="stop-color:#F26522"/>
		<stop  offset="0.9967" style="stop-color:#FBAA19"/>
	</linearGradient>
	<path fill="url(#SVGID_3_)" d="M95.168,15.523c-1.799-0.863-3.684-1.6-5.65-2.196c-3.806-1.151-7.651-1.688-11.429-1.682
		c-3.479,0.006-6.9,0.482-10.188,1.379c-4.608,4.467-8.182,10.124-10.167,16.69c-0.215,0.716-0.405,1.434-0.579,2.152
		c-1.562,6.458-1.407,12.979,0.194,19.049c0.141-0.544,0.286-1.089,0.451-1.632c0.853-2.819,2.002-5.462,3.388-7.925
		c2.95-5.236,7.013-9.619,11.787-12.927c3.537-2.452,7.46-4.314,11.613-5.502c6.637-1.897,13.846-2.062,20.955-0.138
		C102.557,19.873,99.074,17.396,95.168,15.523z"/>
	<linearGradient id="SVGID_4_" gradientUnits="userSpaceOnUse" x1="105.749" y1="20.9326" x2="60.5617" y2="9.7953">
		<stop  offset="0" style="stop-color:#DA1C5C"/>
		<stop  offset="0.1097" style="stop-color:#CC215A"/>
		<stop  offset="0.7116" style="stop-color:#952D51"/>
		<stop  offset="1" style="stop-color:#812C4D"/>
	</linearGradient>
	<path fill="url(#SVGID_4_)" d="M117.278,28.135c-0.45-5.838-2.209-11.449-5.062-16.443c-1.7-2.975-3.781-5.733-6.214-8.186
		c-7.348-2.13-14.833-1.993-21.7,0.001c-6.147,1.783-11.793,5.05-16.401,9.518c3.289-0.897,6.709-1.374,10.188-1.379
		c3.778-0.006,7.624,0.531,11.429,1.682c1.966,0.596,3.851,1.333,5.65,2.196c3.905,1.873,7.388,4.35,10.374,7.268
		c5.121,5.003,8.786,11.319,10.581,18.221C117.248,36.702,117.604,32.361,117.278,28.135z"/>
	<linearGradient id="SVGID_5_" gradientUnits="userSpaceOnUse" x1="119.8945" y1="10.79" x2="117.5161" y2="46.1397">
		<stop  offset="0" style="stop-color:#D90E56"/>
		<stop  offset="0.2575" style="stop-color:#E23D48"/>
		<stop  offset="0.5517" style="stop-color:#EC5A2E"/>
		<stop  offset="0.6928" style="stop-color:#F26522"/>
		<stop  offset="0.9967" style="stop-color:#FBAA19"/>
	</linearGradient>
	<path fill="url(#SVGID_5_)" d="M132.909,31.124c-1.799-6.819-5.423-13.067-10.473-18.024c-4.355-4.273-9.769-7.59-16.001-9.476
		c-0.147-0.044-0.29-0.076-0.434-0.119c2.433,2.453,4.514,5.21,6.214,8.186c2.854,4.995,4.612,10.605,5.062,16.443
		c0.325,4.226-0.03,8.567-1.155,12.877c-0.128,0.494-0.256,0.986-0.404,1.478c-1.974,6.53-5.498,12.162-10.048,16.623
		c4.149-1.186,8.07-3.047,11.604-5.495c4.781-3.311,8.846-7.694,11.797-12.935c1.385-2.462,2.536-5.105,3.387-7.922
		C132.625,32.215,132.77,31.67,132.909,31.124z"/>
	<linearGradient id="SVGID_6_" gradientUnits="userSpaceOnUse" x1="111.1416" y1="56.2485" x2="134.5326" y2="31.9218">
		<stop  offset="0" style="stop-color:#DA1C5C"/>
		<stop  offset="0.1097" style="stop-color:#CC215A"/>
		<stop  offset="0.7116" style="stop-color:#952D51"/>
		<stop  offset="1" style="stop-color:#812C4D"/>
	</linearGradient>
	<path fill="url(#SVGID_6_)" d="M133.104,50.174c1.562-6.459,1.406-12.978-0.194-19.05c-0.14,0.546-0.284,1.091-0.451,1.636
		c-0.851,2.817-2.002,5.46-3.387,7.922c-2.951,5.241-7.016,9.625-11.797,12.935c-3.533,2.448-7.454,4.309-11.604,5.495
		c-6.635,1.896-13.84,2.063-20.947,0.14c2.991,2.917,6.469,5.392,10.374,7.262c1.793,0.858,3.673,1.592,5.636,2.187
		c3.803,1.149,7.649,1.688,11.428,1.681c3.49-0.006,6.922-0.484,10.221-1.387c4.595-4.464,8.161-10.113,10.142-16.669
		C132.742,51.61,132.933,50.893,133.104,50.174z"/>
</g>
<g>
	<path fill="#484748" d="M25.531,126.15c-0.397,0.717-1.47,1.594-2.744,1.594h-4.774c-3.7,0-5.569-2.626-5.569-5.808v-8.476
		c0-3.181,2.031-5.648,5.807-5.648h9.468c0.718,0,1.275,0.599,1.275,1.271v22.557c0,3.222-2.627,5.808-5.809,5.808h-9.468v-2.862
		c0-0.24,0.199-0.439,0.438-0.439h9.03c1.273,0,2.346-1.033,2.346-2.345V126.15z M15.906,122.093c0,1.274,0.517,2.349,2.188,2.349
		h5.489c1.034-0.16,1.87-0.995,1.948-2.029v-10.86c0-0.238-0.198-0.438-0.436-0.438h-6.844c-1.828,0-2.345,1.074-2.345,2.347
		V122.093z"/>
	<path fill="#484748" d="M44.51,107.853v2.864c0,0.236-0.201,0.438-0.438,0.438h-4.972c-1.076,0-1.83,0.833-1.912,1.789v14.8h-3.021
		c-0.24,0-0.438-0.199-0.438-0.439v-19.452h3.023c0.238,0,0.436,0.157,0.436,0.396v0.876c0.478-0.676,1.473-1.272,2.706-1.272H44.51
		z"/>
	<path fill="#484748" d="M62.807,113.422v13.049c0,0.715-0.557,1.273-1.272,1.273h-0.438h-1.75h-7.121
		c-3.222,0-5.808-2.585-5.808-5.808v-1.235c0-3.222,2.586-5.807,5.808-5.807h6.722c0.24,0,0.438-0.202,0.438-0.439v-0.994
		c0-1.272-0.836-2.347-2.387-2.347h-7.917c-0.238,0-0.436-0.197-0.436-0.438v-2.824h8.353
		C60.222,107.853,62.807,109.802,62.807,113.422z M52.226,124.36h6.763c0.237,0,0.397-0.198,0.397-0.438v-6.326
		c-0.199,0.36-0.597,0.559-1.034,0.598h-6.126c-1.313,0-2.348,1.036-2.348,2.349v1.473C49.878,123.326,50.913,124.36,52.226,124.36z
		"/>
	<path fill="#484748" d="M78.401,127.744h-4.575c-1.232,0-2.228-0.637-2.705-1.273v10.541c0,0.238-0.199,0.437-0.437,0.437h-3.023
		v-28.364c0-0.673,0.555-1.231,1.271-1.231h9.468c3.183,0,5.808,1.671,5.808,5.608v8.674
		C84.209,125.476,81.584,127.744,78.401,127.744z M80.749,113.461c0-1.828-1.074-2.347-2.348-2.347H71.56
		c-0.24,0-0.438,0.199-0.438,0.438v10.86c0.081,1.034,0.874,1.911,1.909,2.029h5.371c1.274,0,2.348-1.035,2.348-2.349V113.461z"/>
	<path fill="#484748" d="M88.982,121.937v-8.435c0-3.7,2.585-5.649,5.808-5.649h5.332c3.223,0,5.808,1.949,5.808,5.649v4.574
		c0,0.675-0.081,1.232-1.035,1.232H93.996c-0.637,0-1.193-0.278-1.553-0.756v3.54c0,1.313,1.036,2.349,2.348,2.349h9.865
		c0.239,0,0.439,0.198,0.439,0.436v2.867H94.791C91.568,127.744,88.982,125.159,88.982,121.937z M94.791,111.114
		c-1.312,0-2.348,0.756-2.348,2.347v2.148c0,0.237,0.16,0.399,0.4,0.438h9.267c0.241,0,0.438-0.2,0.438-0.438v-2.148
		c0-1.591-0.754-2.347-2.308-2.347H94.791z"/>
	<path fill="#484748" d="M120.609,97.787v2.865c0,0.236-0.198,0.437-0.438,0.437h-3.58c-1.312,0-2.349,1.034-2.349,2.35v5.129
		c0.202-0.355,0.598-0.596,1.077-0.596h3.897v2.864c0,0.238-0.198,0.397-0.438,0.397h-4.536v16.071c0,0.24-0.197,0.439-0.435,0.439
		h-3.025v-24.148c0-3.223,2.586-5.809,5.809-5.809H120.609z"/>
	<path fill="#484748" d="M127.093,99.38v3.26h-3.022c-0.238,0-0.437-0.198-0.437-0.437v-3.262h3.024
		C126.896,98.941,127.093,99.141,127.093,99.38z M127.093,108.249v19.495h-3.022c-0.238,0-0.437-0.199-0.437-0.439v-19.452h3.024
		C126.896,107.853,127.093,108.01,127.093,108.249z"/>
	<path fill="#484748" d="M135.565,98.347v29.397h-3.022c-0.24,0-0.438-0.199-0.438-0.439V97.908h3.024
		C135.367,97.908,135.565,98.105,135.565,98.347z"/>
	<path fill="#484748" d="M164.646,113.66v14.084h-3.023c-0.237,0-0.437-0.199-0.437-0.439v-13.844c0-1.272-1.035-2.347-2.348-2.347
		h-5.172c0.398,0.238,0.717,0.638,0.717,1.113v15.517h-3.023c-0.24,0-0.438-0.199-0.438-0.439v-15.753
		c0-0.238-0.2-0.438-0.438-0.438h-6.008c-0.199,0-0.358,0.159-0.396,0.356v15.834c0,0.24-0.199,0.439-0.439,0.439h-3.021v-17.307
		c0-1.432,1.151-2.585,2.586-2.585h15.633C162.062,107.853,164.646,110.438,164.646,113.66z"/>
	<path fill="#484748" d="M168.824,115.77v-2.666c0-3.222,2.228-5.251,5.449-5.251h10.9v2.824c0,0.24-0.198,0.438-0.437,0.438
		h-10.464c-1.312,0-1.989,0.638-1.989,1.949v1.154c0,0.199,0.159,0.357,0.358,0.438l12.294,2.904
		c0.634,0.117,1.072,0.673,1.072,1.312v3.54c0,3.462-2.465,5.332-5.687,5.332h-11.26v-2.826c0-0.239,0.198-0.438,0.438-0.438h10.822
		c1.311,0,2.465-0.754,2.465-2.067v-1.869c0-0.199-0.16-0.358-0.357-0.397l-12.493-3.066
		C169.302,116.962,168.824,116.406,168.824,115.77z"/>
</g>
<g>
	<path fill="#484748" d="M115.194,143.467h-1.936c-0.522,0-0.942-0.269-1.145-0.537v4.463c0,0.098-0.085,0.184-0.185,0.184h-1.281
		V135.57c0-0.286,0.237-0.522,0.539-0.522h4.007c1.347,0,2.458,0.708,2.458,2.375v3.669
		C117.652,142.506,116.541,143.467,115.194,143.467z M116.188,137.423c0-0.773-0.454-0.991-0.993-0.991h-2.894
		c-0.103,0-0.187,0.082-0.187,0.186v4.595c0.032,0.438,0.37,0.807,0.809,0.859h2.271c0.539,0,0.993-0.439,0.993-0.995V137.423z"/>
	<path fill="#484748" d="M124.229,135.048v1.213c0,0.102-0.085,0.187-0.186,0.187h-2.106c-0.452,0-0.773,0.354-0.807,0.757v6.263
		h-1.281c-0.101,0-0.186-0.083-0.186-0.184v-8.235h1.281c0.102,0,0.186,0.069,0.186,0.171v0.368c0.2-0.286,0.623-0.539,1.145-0.539
		H124.229z"/>
	<path fill="#484748" d="M128.045,143.586c-1.365,0-2.459-1.096-2.459-2.458v-3.737c0-1.35,1.094-2.46,2.459-2.46h2.222
		c1.365,0,2.476,1.11,2.476,2.46v3.737c0,1.362-1.11,2.458-2.476,2.458H128.045z M127.05,137.322v3.873
		c0,0.555,0.438,1.01,0.995,1.01h2.222c0.556,0,1.012-0.455,1.012-1.01v-3.873c0-0.54-0.456-0.992-1.012-0.992h-2.222
		C127.488,136.33,127.05,136.782,127.05,137.322z"/>
	<path fill="#484748" d="M137.062,135.048h1.952c0.537,0,0.961,0.253,1.162,0.539v-4.563c0-0.099,0.083-0.183,0.185-0.183h1.279
		v12.089c0,0.301-0.235,0.537-0.539,0.537h-4.006c-1.364,0-2.459-1.092-2.459-2.458v-3.503
		C134.637,136.146,135.697,135.048,137.062,135.048z M136.104,141.076c0,0.556,0.436,0.995,0.992,0.995h2.896
		c0.102,0,0.186-0.069,0.186-0.169v-4.597c-0.034-0.455-0.388-0.81-0.809-0.858h-2.272c-0.557,0-0.992,0.438-0.992,0.993V141.076z"
		/>
	<path fill="#484748" d="M144.968,135.032c0.102,0,0.186,0.085,0.186,0.187v5.857c0,0.556,0.438,0.995,0.993,0.995h2.223
		c0.555,0,1.009-0.439,1.009-0.995v-5.857c0-0.102,0.086-0.187,0.187-0.187h1.278v5.977c0,1.366-1.111,2.458-2.474,2.458h-2.223
		c-1.363,0-2.457-1.092-2.457-2.458v-5.977H144.968z"/>
	<path fill="#484748" d="M154.204,137.457v3.619c0,0.556,0.437,0.995,0.993,0.995h2.979c0.102,0,0.184,0.083,0.184,0.184v1.212
		h-3.163c-1.347,0-2.46-1.092-2.46-2.458v-3.484c0-1.363,1.113-2.459,2.46-2.459h3.163v1.212c0,0.103-0.082,0.17-0.184,0.17h-2.979
		C154.641,136.447,154.204,136.902,154.204,137.457z"/>
	<path fill="#484748" d="M164.432,142.255v1.212h-1.701c-1.345,0-2.455-1.092-2.455-2.458v-10.035h1.277
		c0.101,0,0.187,0.085,0.187,0.186v4.211c0.083-0.184,0.268-0.305,0.487-0.305h1.785v1.212c0,0.103-0.085,0.17-0.186,0.17h-2.087
		v4.629c0,0.556,0.436,0.995,0.991,0.995h1.517C164.349,142.071,164.432,142.154,164.432,142.255z"/>
	<path fill="#484748" d="M167.457,131.463v1.381h-1.28c-0.1,0-0.184-0.085-0.184-0.187v-1.381h1.279
		C167.373,131.276,167.457,131.363,167.457,131.463z M167.457,135.219v8.248h-1.28c-0.1,0-0.184-0.083-0.184-0.184v-8.235h1.279
		C167.373,135.048,167.457,135.117,167.457,135.219z"/>
	<path fill="#484748" d="M172.001,143.586c-1.365,0-2.459-1.096-2.459-2.458v-3.737c0-1.35,1.094-2.46,2.459-2.46h2.222
		c1.365,0,2.476,1.11,2.476,2.46v3.737c0,1.362-1.11,2.458-2.476,2.458H172.001z M171.006,137.322v3.873
		c0,0.555,0.438,1.01,0.995,1.01h2.222c0.557,0,1.012-0.455,1.012-1.01v-3.873c0-0.54-0.455-0.992-1.012-0.992h-2.222
		C171.443,136.33,171.006,136.782,171.006,137.322z"/>
	<path fill="#484748" d="M185.884,137.506v5.961h-1.278c-0.103,0-0.186-0.083-0.186-0.184v-5.86c0-0.537-0.439-0.991-0.993-0.991
		h-3.05c-0.101,0-0.184,0.082-0.184,0.186v6.666c0,0.101-0.084,0.184-0.187,0.184h-1.28v-7.321c0-0.608,0.491-1.098,1.096-1.098
		h3.604C184.789,135.048,185.884,136.146,185.884,137.506z"/>
</g>
</svg>
